# xmcd
#
# Track frame offsets:
#	150
#	12170
#	24632
#	37764
#	51127
#	66445
#	80986
#	92680
#	106355
#	124518
#	138582
#	149162
#	164076
#	179874
#	194355
#	208194
#	220663
#	232929
#	244862
#	257206
#
# Disc length: 3586 seconds
#
# Revision: 3
# Processed by: cddbd v1.5.1PL2 Copyright (c) Steve Scherf et al.
# Submitted via: audiograbber 1.83.01
#
DISCID=330e0014
DTITLE=Dolly Parton - Favoritter
DYEAR=2000
DGENRE=Country
TTITLE0=Dolly Parton - Jolene
TTITLE1=Dolly Parton - 9 to 5
TTITLE2=Dolly Parton - I Will Always Love You
TTITLE3=Barry Mann and Cynthia Weil - Here You Come Again
TTITLE4=Richard Brannan and Tom Campbell - Think About Love
TTITLE5=Dean Pitchford and Tom Snow - Don't Call it Love
TTITLE6=Dolly Parton - Baby I'm Burning
TTITLE7=Dolly Parton - Two Doors Down
TTITLE8=Dolly Parton - Do I Ever Cross Your Mind?
TTITLE9=Billy Vera - I Really Got the Feeling
TTITLE10=Dolly Parton - Love is Like a Butterfly
TTITLE11=Mike Settle - But You Know I Love You
TTITLE12=Wolfert and Bayer Sager - Heartbreaker
TTITLE13=Tom T. Hall - Harper Valley P.T.A
TTITLE14=Dolly Parton - Coat of Many Colours
TTITLE15=Dolly Parton - Mama Say a Prayer
TTITLE16=Dolly Parton - The Bargain Store
TTITLE17=Dolly Parton - Bobby's Arms
TTITLE18=Bobby Braddock and Curly Putnam - D.I.V.O.R.C.E
TTITLE19=Dolly Parton - Me and Little Andy
EXTD=
EXTT0=
EXTT1=
EXTT2=
EXTT3=
EXTT4=
EXTT5=
EXTT6=
EXTT7=
EXTT8=
EXTT9=
EXTT10=
EXTT11=
EXTT12=
EXTT13=
EXTT14=
EXTT15=
EXTT16=
EXTT17=
EXTT18=
EXTT19=
PLAYORDER=
